<svg width="379" height="34" viewBox="0 0 379 34" fill="none" xmlns="http://www.w3.org/2000/svg">
<path d="M7.22377 0.00505441L0 15.3115L0.67003 15.7557L7.8938 0.449231L7.22377 0.00505441Z" fill="#00F4BF"/>
<path d="M22.0646 -7.83272e-06L6.64636 32.6697L7.31639 33.1139L22.7346 0.444169L22.0646 -7.83272e-06Z" fill="#00F4BF"/>
<path d="M36.9113 0.000236308L21.493 32.6699L22.1631 33.1141L37.5813 0.444413L36.9113 0.000236308Z" fill="#00F4BF"/>
<path d="M51.7541 0.000483898L36.3359 32.6702L37.006 33.1143L52.4242 0.444661L51.7541 0.000483898Z" fill="#00F4BF"/>
<path d="M66.601 0.00097218L51.1827 32.6707L51.8528 33.1148L67.271 0.445149L66.601 0.00097218Z" fill="#00F4BF"/>
<path d="M81.4437 0.00121287L66.0255 32.6709L66.6955 33.1151L82.1138 0.44539L81.4437 0.00121287Z" fill="#00F4BF"/>
<path d="M96.2865 0.00146391L80.8683 32.6711L81.5383 33.1153L96.9565 0.445641L96.2865 0.00146391Z" fill="#00F4BF"/>
<path d="M111.133 0.00194529L95.7151 32.6716L96.3851 33.1158L111.803 0.446122L111.133 0.00194529Z" fill="#00F4BF"/>
<path d="M125.976 0.00218943L110.558 32.6719L111.228 33.1161L126.646 0.446366L125.976 0.00218943Z" fill="#00F4BF"/>
<path d="M140.823 0.00243357L125.405 32.6721L126.075 33.1163L141.493 0.44661L140.823 0.00243357Z" fill="#00F4BF"/>
<path d="M155.664 0.0068281L140.246 32.6765L140.916 33.1207L156.334 0.451005L155.664 0.0068281Z" fill="#00F4BF"/>
<path d="M170.507 0.00707225L155.089 32.6768L155.759 33.1209L171.177 0.451249L170.507 0.00707225Z" fill="#00F4BF"/>
<path d="M185.353 0.00731639L169.935 32.677L170.605 33.1212L186.023 0.451493L185.353 0.00731639Z" fill="#00F4BF"/>
<path d="M200.196 0.00780467L184.778 32.6775L185.448 33.1217L200.866 0.451982L200.196 0.00780467Z" fill="#00F4BF"/>
<path d="M215.043 0.00804881L199.625 32.6777L200.295 33.1219L215.713 0.452226L215.043 0.00804881Z" fill="#00F4BF"/>
<path d="M229.886 0.00830675L214.468 32.678L215.138 33.1222L230.556 0.452484L229.886 0.00830675Z" fill="#00F4BF"/>
<path d="M244.729 0.00877088L229.31 32.6785L229.98 33.1226L245.399 0.452948L244.729 0.00877088Z" fill="#00F4BF"/>
<path d="M259.576 0.00901502L244.157 32.6787L244.827 33.1229L260.246 0.453192L259.576 0.00901502Z" fill="#00F4BF"/>
<path d="M274.418 0.00928331L259 32.679L259.67 33.1231L275.088 0.45346L274.418 0.00928331Z" fill="#00F4BF"/>
<path d="M289.261 0.00977159L273.843 32.6794L274.513 33.1236L289.931 0.453948L289.261 0.00977159Z" fill="#00F4BF"/>
<path d="M304.108 0.00999158L288.69 32.6797L289.36 33.1239L304.778 0.454168L304.108 0.00999158Z" fill="#00F4BF"/>
<path d="M318.951 0.0102599L303.533 32.6799L304.203 33.1241L319.621 0.454437L318.951 0.0102599Z" fill="#00F4BF"/>
<path d="M333.797 0.010504L318.379 32.6802L319.049 33.1244L334.467 0.454681L333.797 0.010504Z" fill="#00F4BF"/>
<path d="M348.64 0.0109681L333.222 32.6807L333.892 33.1248L349.31 0.455145L348.64 0.0109681Z" fill="#00F4BF"/>
<path d="M363.483 0.0112123L348.065 32.6809L348.735 33.1251L364.153 0.455389L363.483 0.0112123Z" fill="#00F4BF"/>
<path d="M378.33 0.0114806L362.912 32.6812L363.582 33.1253L379 0.455657L378.33 0.0114806Z" fill="#00F4BF"/>
</svg>
