<svg width="248" height="40" viewBox="0 0 248 40" fill="none" xmlns="http://www.w3.org/2000/svg">
<path d="M24.428 5.30753C21.384 5.30753 18.3384 5.3673 15.2991 5.26379C14.5756 5.239 13.8329 4.72873 13.2591 4.20972C12.381 3.41807 11.6877 2.54332 11.7626 1.32304C11.8088 0.578044 12.3491 0.0254938 13.1237 0.00216712C14.1421 -0.0284491 14.5007 0.260218 14.6058 1.19474C14.6967 2.00534 15.4107 2.5856 16.335 2.5856C21.9848 2.58705 27.6346 2.58705 33.2844 2.5856C33.9761 2.5856 34.6502 2.68473 35.2989 2.89613C37.4058 3.57844 38.1979 5.83821 37.9764 7.14596C37.6337 9.16809 35.8647 10.5575 33.5984 10.6012C31.7719 10.6377 29.9423 10.6041 28.1143 10.6114C26.8824 10.6158 26.3947 11.0576 26.3883 12.1612C26.3819 13.1744 26.4218 14.1892 26.3724 15.1995C26.3437 15.7943 26.6178 15.8891 27.1549 15.7768C28.9239 15.4065 30.6165 14.8583 32.2596 14.1381C35.4838 12.7269 38.6951 12.9499 41.7423 14.5522C44.5808 16.0436 46.0869 18.4098 46.71 21.33C47.0559 22.9483 47.5069 24.5593 47.9149 26.1645C48.4376 28.2202 48.8313 30.3181 49.3795 32.3723C49.6505 33.3885 49.5819 34.4119 49.7668 35.4223C49.8417 35.8378 49.4417 36.3422 49.2122 36.7854C48.5954 37.9794 47.679 38.9213 46.3004 39.3907C45.6422 39.6152 45.0159 39.917 44.2844 39.9812C42.7783 40.1138 41.5654 39.5292 40.4387 38.739C38.633 37.4721 36.9452 36.0769 35.2718 34.6671C35.0487 34.479 34.808 34.3055 34.5833 34.1189C34.0606 33.6815 33.643 33.5853 32.8987 33.9658C30.4571 35.2138 28.1 34.4498 26.7533 32.2557C26.5812 31.9743 26.4361 31.8956 26.1445 31.8956C25.8114 31.897 25.4783 31.9145 25.1484 31.8912C24.0232 31.8125 23.1275 31.8606 22.4454 33.0094C21.6262 34.3915 18.9408 35.2444 16.7207 33.8783C16.1613 33.5343 15.8314 33.6057 15.3629 33.9818C13.1492 35.759 11.0741 37.6864 8.62934 39.2114C7.65717 39.8179 6.53358 40.1095 5.38291 39.9403C3.68877 39.6925 2.1795 39.016 1.19936 37.6733C0.208056 36.3145 -0.340188 34.8945 0.231962 33.1639C0.805706 31.429 1.14836 29.6168 1.43364 27.8163C1.6217 26.631 2.09344 25.5274 2.32613 24.3596C2.60822 22.9439 3.0465 21.5546 3.42421 20.155C3.98202 18.092 5.26019 16.465 7.05633 15.1543C8.84131 13.8509 10.9275 13.2852 13.1571 13.2648C15.0059 13.2473 16.794 13.6672 18.4308 14.4924C19.7743 15.1689 21.2677 15.4051 22.7116 15.7827C23.1578 15.8993 23.4829 15.8016 23.4558 15.2243C23.4048 14.1367 23.4256 13.0462 23.4447 11.9585C23.4877 9.62733 25.3811 7.92157 27.9422 7.90408C29.7144 7.89241 31.4867 7.90408 33.2589 7.90116C34.4861 7.8997 35.0311 7.48711 35.0295 6.56862C35.0279 5.6618 34.4925 5.26962 33.2286 5.26816C30.293 5.26525 27.3573 5.26816 24.4216 5.26816C24.4216 5.27983 24.4216 5.29149 24.4216 5.30315L24.428 5.30753ZM13.5094 15.9664C10.0892 15.9722 7.51054 17.6284 6.41884 20.3051C5.90247 21.5721 5.66819 22.9046 5.3335 24.208C4.51592 27.4037 3.82105 30.6257 3.08634 33.839C2.76281 35.2561 3.31902 36.3335 4.71832 37.0624C5.56778 37.5042 6.88899 37.2388 7.91376 36.4224C10.0159 34.7458 12.1164 33.0648 14.2281 31.3984C14.5867 31.1141 14.7939 30.8196 14.7525 30.3633C14.625 28.9418 16.1119 27.1952 17.7519 26.7433C19.4508 26.2753 21.5593 26.666 22.4151 28.0583C23.1403 29.2378 24.0519 29.3034 25.2217 29.2115C25.4958 29.1897 25.7763 29.194 26.052 29.2115C26.4186 29.2363 26.6274 29.1343 26.8266 28.8091C27.9183 27.0276 29.7878 26.2272 31.7417 26.6558C33.2892 26.9955 35.0519 28.2522 35.0295 30.5761C35.0264 30.8648 35.1905 31.0164 35.3722 31.2147C36.0368 31.9378 36.9038 32.4423 37.6767 33.0429C39.288 34.2967 40.7176 35.7401 42.4882 36.8292C43.5672 37.494 44.584 37.3015 45.5625 36.7446C46.5379 36.1891 46.9539 35.2852 46.8088 34.2749C46.6542 33.1916 46.3227 32.1288 46.063 31.0573C45.4892 28.6911 44.9234 26.3234 44.3322 23.9601C43.9991 22.629 43.7807 21.2528 43.2405 19.9917C41.6419 16.2565 36.8034 15.0712 33.3338 16.6006C30.3105 17.9331 27.1852 18.7335 23.7842 18.5542C21.9689 18.4579 20.2445 18.1051 18.5966 17.4447C16.8642 16.7493 15.1397 16.0567 13.5078 15.9649L13.5094 15.9664ZM30.7344 29.3384C29.8945 29.3325 29.2554 29.8341 29.2236 30.5207C29.1949 31.1506 30.0013 31.9364 30.6611 31.9218C31.5122 31.9028 32.2118 31.2701 32.1975 30.5324C32.1831 29.7889 31.6397 29.3457 30.7344 29.3384ZM20.415 30.6213C20.423 29.6533 20.1026 29.3471 19.0731 29.3384C18.2204 29.3325 17.6116 29.8137 17.5877 30.5135C17.5654 31.1958 18.2714 31.9116 18.979 31.9218C19.8269 31.9349 20.407 31.4086 20.4134 30.6199L20.415 30.6213Z" fill="url(#paint0_linear_259_216)"/>
<path d="M40.8562 22.5489C40.8578 23.409 40.182 24.0695 39.1556 23.9966C38.1835 23.928 37.9476 24.224 38.0066 25.0681C38.0671 25.9458 37.385 26.5756 36.5579 26.6019C35.812 26.6252 35.0741 25.8831 35.039 25.0769C35.0103 24.3907 34.6119 24.0384 33.8437 24.0199C32.964 23.9995 32.199 23.3055 32.207 22.5387C32.2149 21.7397 32.7457 21.3228 33.8023 21.2819C33.9665 21.2761 34.129 21.2586 34.2932 21.244C34.8749 21.1945 35.1458 20.9393 35.0486 20.3736C35.0072 20.1331 35.0183 19.8561 35.1092 19.6316C35.3514 19.0265 35.7897 18.5571 36.5531 18.5833C37.4408 18.6154 37.9205 19.0921 38.0305 19.9188C38.0894 20.3605 37.801 20.9451 38.1851 21.2061C38.4927 21.4146 39.0887 21.263 39.5557 21.2848C40.3653 21.3213 40.8546 21.8009 40.8562 22.5489Z" fill="url(#paint1_linear_259_216)"/>
<path d="M14.5994 20.2177C14.5919 20.9262 14.9834 21.2815 15.7739 21.2834C16.8896 21.2849 17.4187 21.5677 17.5844 22.2515C17.7932 23.1116 17.0696 23.9354 16.0289 24.0185C15.919 24.0272 15.8074 24.0185 15.6974 24.0199C14.9558 24.0248 14.5898 24.3567 14.5994 25.0157C14.6137 26.0435 14.1324 26.5902 13.2064 26.6034C12.4287 26.6136 11.7099 25.8657 11.7928 24.9749C11.8693 24.1614 11.5553 23.9077 10.7106 24.0141C9.96637 24.1089 9.44682 23.7269 9.09301 23.1831C8.69617 22.5751 8.98304 22.0051 9.35916 21.489C9.53925 21.2426 9.77194 21.0472 10.1911 21.2382C10.6389 21.4423 11.0995 21.1755 11.5553 21.1172C11.89 21.0735 11.745 20.8052 11.7721 20.6288C11.831 20.2337 11.6398 19.8095 11.8804 19.4421C12.2486 18.8837 12.6773 18.4376 13.5347 18.6679C14.4846 18.9231 14.6137 19.0645 14.6025 20.2191L14.5994 20.2177Z" fill="url(#paint2_linear_259_216)"/>
<path d="M22.0183 23.8857C21.2198 23.8959 20.5919 23.3492 20.56 22.6159C20.5249 21.814 21.0923 21.2804 21.98 21.2833C22.5984 21.2848 23.5371 21.9044 23.5212 22.301C23.4829 23.253 22.8932 23.8741 22.0199 23.8857H22.0183Z" fill="url(#paint3_linear_259_216)"/>
<path d="M27.794 23.8858C26.962 23.8697 26.3548 23.2705 26.3899 22.4964C26.4249 21.7178 26.9636 21.2673 27.8465 21.2834C28.4075 21.2936 29.3431 21.9088 29.3478 22.2718C29.3574 23.2166 28.6976 23.9033 27.7955 23.8858H27.794Z" fill="url(#paint4_linear_259_216)"/>
<path d="M72.7482 38.6952C72.3482 38.6952 71.9194 38.6165 71.4636 38.4605C71.0062 38.303 70.6349 38.1018 70.3496 37.8525C70.0643 37.6047 69.9209 37.3102 69.9209 36.9705C69.9209 36.8918 69.9352 36.7751 69.9639 36.6177L78.4872 11.2295C78.6593 10.7601 79.0227 10.4072 79.5789 10.1711C80.1351 9.93487 80.728 9.81824 81.3559 9.81824C81.9839 9.81824 82.6198 9.93633 83.176 10.1711C83.7322 10.4058 84.0972 10.7586 84.2677 11.2295L92.7479 36.6177C92.8053 36.7751 92.834 36.8918 92.834 36.9705C92.834 37.2839 92.6842 37.5711 92.3846 37.8321C92.0849 38.0931 91.7136 38.3016 91.2706 38.459C90.8275 38.6165 90.3924 38.6937 89.9637 38.6937C89.5924 38.6937 89.2704 38.6281 88.9995 38.4984C88.7285 38.3686 88.5357 38.1456 88.421 37.8321L86.6647 32.2687H76.0424L74.3292 37.8321C74.2431 38.1456 74.0503 38.3672 73.7506 38.4984C73.451 38.6296 73.1147 38.6937 72.7434 38.6937L72.7482 38.6952ZM77.0736 28.9403H85.6399L81.3575 15.5012L77.0752 28.9403H77.0736Z" fill="white"/>
<path d="M99.6456 38.6952C98.989 38.6952 98.4535 38.5523 98.0392 38.2637C97.6248 37.9765 97.4176 37.663 97.4176 37.3233V10.4072C97.4176 10.0151 97.6248 9.69579 98.0392 9.44794C98.4519 9.2001 98.9874 9.07617 99.6456 9.07617C100.304 9.07617 100.809 9.2001 101.252 9.44794C101.695 9.69724 101.917 10.0165 101.917 10.4072V37.3233C101.917 37.663 101.695 37.9765 101.252 38.2637C100.809 38.5509 100.274 38.6952 99.6456 38.6952Z" fill="white"/>
<path d="M116.947 39.0088C115.32 39.0088 113.827 38.6501 112.472 37.9314C111.116 37.2126 110.037 36.2606 109.238 35.071C108.438 33.8828 108.04 32.6217 108.04 31.2906V21.4963C108.04 21.1566 108.261 20.8431 108.704 20.5559C109.147 20.2687 109.669 20.1244 110.268 20.1244C110.867 20.1244 111.431 20.2687 111.874 20.5559C112.317 20.8431 112.539 21.1566 112.539 21.4963V31.2906C112.539 31.9962 112.732 32.6552 113.117 33.269C113.503 33.8828 114.024 34.3857 114.681 34.7779C115.338 35.1701 116.08 35.3655 116.907 35.3655C117.734 35.3655 118.434 35.1701 119.092 34.7779C119.749 34.3857 120.27 33.8769 120.656 33.25C121.041 32.6231 121.234 31.97 121.234 31.2906V21.4569C121.234 21.091 121.462 20.7775 121.92 20.5166C122.375 20.2556 122.905 20.1244 123.504 20.1244C124.16 20.1244 124.696 20.2556 125.11 20.5166C125.525 20.7775 125.732 21.091 125.732 21.4569V31.2906C125.732 32.6756 125.332 33.9542 124.532 35.1307C123.732 36.3058 122.661 37.2462 121.32 37.9518C119.978 38.6574 118.522 39.0088 116.952 39.0088H116.947Z" fill="white"/>
<path d="M141.146 38.9299C139.318 38.9299 137.683 38.6427 136.242 38.0683C134.8 37.4939 133.657 36.5667 132.816 35.2866C131.973 34.0066 131.552 32.3095 131.552 30.1927V18.7917C131.552 16.6763 131.973 14.9778 132.816 13.6978C133.657 12.4177 134.8 11.4905 136.242 10.9161C137.683 10.3417 139.275 10.0544 141.017 10.0544C142.958 10.0544 144.657 10.3548 146.114 10.9554C147.571 11.5561 148.712 12.3915 149.541 13.4631C150.368 14.5346 150.782 15.8132 150.782 17.3032C150.782 18.0876 150.589 18.6153 150.204 18.8894C149.818 19.1635 149.254 19.3006 148.511 19.3006C147.912 19.3006 147.391 19.2029 146.948 19.0061C146.505 18.8107 146.269 18.452 146.242 17.9287C146.156 17.172 145.956 16.4722 145.642 15.8322C145.328 15.1921 144.814 14.6833 144.101 14.3043C143.387 13.9267 142.402 13.7357 141.146 13.7357C139.546 13.7357 138.298 14.1468 137.4 14.9691C136.501 15.7913 136.051 17.0656 136.051 18.7888V30.1897C136.051 31.913 136.501 33.1872 137.4 34.0095C138.298 34.8317 139.548 35.2429 141.146 35.2429C142.745 35.2429 143.958 34.8317 144.873 34.0095C145.786 33.1872 146.243 31.913 146.243 30.1897V26.9765H141.918C141.46 26.9765 141.103 26.8074 140.847 26.4677C140.59 26.128 140.461 25.7373 140.461 25.2926C140.461 24.9004 140.59 24.5286 140.847 24.1758C141.103 23.823 141.46 23.6466 141.918 23.6466H149.284C149.769 23.6466 150.141 23.7836 150.398 24.0577C150.655 24.3318 150.784 24.6657 150.784 25.0564V30.1883C150.784 32.3037 150.355 34.0022 149.499 35.2822C148.643 36.5623 147.486 37.4895 146.03 38.0639C144.573 38.6384 142.946 38.9256 141.146 38.9256V38.9299Z" fill="white"/>
<path d="M160.847 39.0087C159.275 39.0087 157.935 38.5844 156.821 37.7359C155.707 36.8874 155.151 35.5884 155.151 33.8374C155.151 32.3489 155.579 31.2001 156.435 30.3895C157.292 29.5803 158.469 29.0176 159.968 28.7041C161.468 28.3906 163.202 28.2346 165.172 28.2346H167.056V27.529C167.056 26.8496 166.92 26.1906 166.649 25.5506C166.377 24.9106 165.935 24.3755 165.322 23.944C164.708 23.5125 163.873 23.2981 162.816 23.2981C161.76 23.2981 160.945 23.39 160.375 23.5722C159.803 23.7559 159.347 23.9513 159.004 24.1598C158.662 24.3697 158.348 24.4732 158.062 24.4732C157.549 24.4732 157.147 24.2443 156.864 23.788C156.578 23.3317 156.435 22.8666 156.435 22.3972C156.435 21.9277 156.77 21.502 157.442 21.1244C158.113 20.7453 158.948 20.445 159.948 20.2234C160.947 20.0018 161.932 19.891 162.902 19.891C165.016 19.891 166.699 20.2496 167.956 20.9684C169.212 21.6871 170.125 22.6202 170.697 23.7691C171.268 24.9193 171.555 26.1586 171.555 27.4911V37.3248C171.555 37.6907 171.348 38.01 170.933 38.2841C170.519 38.5582 169.998 38.6952 169.37 38.6952C168.798 38.6952 168.313 38.5582 167.913 38.2841C167.513 38.01 167.314 37.6907 167.314 37.3248V35.9529C166.571 36.7372 165.672 37.4414 164.616 38.0683C163.559 38.6952 162.303 39.0087 160.847 39.0087ZM162.474 35.8741C163.188 35.8741 163.894 35.6788 164.593 35.2866C165.293 34.8944 165.878 34.3987 166.35 33.7981C166.821 33.1974 167.056 32.5836 167.056 31.9567V30.5075H165.985C164.899 30.5075 163.871 30.5659 162.901 30.684C161.93 30.802 161.151 31.063 160.566 31.4683C159.981 31.8736 159.688 32.4932 159.688 33.3286C159.688 34.2165 159.951 34.8638 160.48 35.2676C161.007 35.6729 161.672 35.8756 162.472 35.8756L162.474 35.8741Z" fill="white"/>
<path d="M179.607 38.6952C178.95 38.6952 178.414 38.5523 178 38.2636C177.586 37.9764 177.379 37.663 177.379 37.3233V21.4553C177.379 21.0631 177.586 20.7439 178 20.496C178.413 20.2482 178.948 20.1242 179.607 20.1242C180.148 20.1242 180.62 20.2482 181.02 20.496C181.42 20.7439 181.619 21.0646 181.619 21.4553V22.8651C182.104 22.1085 182.818 21.4218 183.761 20.808C184.703 20.1942 185.887 19.8866 187.315 19.8866C188.6 19.8866 189.735 20.2525 190.72 20.983C191.705 21.7148 192.439 22.6552 192.925 23.804C193.668 22.4715 194.624 21.4859 195.796 20.8459C196.966 20.2059 198.166 19.8866 199.393 19.8866C200.62 19.8866 201.884 20.1869 203.012 20.7876C204.141 21.3883 205.06 22.263 205.774 23.4133C206.488 24.5636 206.845 25.9603 206.845 27.6048V37.3218C206.845 37.6615 206.624 37.975 206.18 38.2622C205.737 38.5494 205.202 38.6937 204.574 38.6937C203.946 38.6937 203.454 38.5508 203.011 38.2622C202.567 37.975 202.346 37.6615 202.346 37.3218V27.6048C202.346 26.7169 202.153 25.9661 201.767 25.3523C201.382 24.7385 200.881 24.2749 200.268 23.9615C199.654 23.648 199.018 23.492 198.362 23.492C197.705 23.492 197.034 23.6553 196.435 23.9819C195.836 24.3085 195.335 24.7662 194.935 25.3538C194.535 25.9413 194.336 26.6659 194.336 27.529V37.3626C194.336 37.8321 194.1 38.1718 193.63 38.3817C193.158 38.5917 192.637 38.6952 192.066 38.6952C191.553 38.6952 191.053 38.5917 190.567 38.3817C190.081 38.1733 189.838 37.8336 189.838 37.3626V27.5684C189.838 26.733 189.652 26.0142 189.282 25.4136C188.911 24.8129 188.425 24.3493 187.825 24.0227C187.226 23.6961 186.568 23.5328 185.856 23.5328C185.199 23.5328 184.563 23.6903 183.95 24.0023C183.334 24.3158 182.835 24.7735 182.45 25.3742C182.064 25.9749 181.871 26.7199 181.871 27.6077V37.3247C181.871 37.6644 181.65 37.9779 181.207 38.2651C180.764 38.5523 180.228 38.6966 179.6 38.6966L179.607 38.6952Z" fill="white"/>
<path d="M221.834 39.0086C219.891 39.0086 218.179 38.6821 216.694 38.0289C215.209 37.3758 214.039 36.469 213.182 35.3055C212.326 34.1436 211.897 32.779 211.897 31.2117V27.4896C211.897 26.1061 212.303 24.8391 213.118 23.6888C213.932 22.54 215.01 21.6186 216.351 20.9261C217.693 20.2336 219.179 19.8881 220.806 19.8881C222.347 19.8881 223.761 20.1957 225.045 20.8095C226.33 21.4232 227.364 22.279 228.15 23.3754C228.934 24.4718 229.328 25.7256 229.328 27.1368C229.328 28.2332 229.141 29.0175 228.771 29.487C228.4 29.9564 227.914 30.2451 227.315 30.3486C226.716 30.4536 226.086 30.5061 225.431 30.5061H216.394V31.4071C216.394 32.7134 216.916 33.7514 217.958 34.5212C219 35.2924 220.336 35.6773 221.963 35.6773C222.962 35.6773 223.777 35.5475 224.405 35.2851C225.033 35.0242 225.562 34.7763 225.989 34.5401C226.416 34.3039 226.816 34.1873 227.187 34.1873C227.559 34.1873 227.873 34.2923 228.129 34.5008C228.386 34.7107 228.585 34.9585 228.728 35.2458C228.87 35.533 228.942 35.7939 228.942 36.0301C228.942 36.4223 228.649 36.8524 228.064 37.3233C227.479 37.7927 226.657 38.1922 225.601 38.5188C224.545 38.8454 223.289 39.0086 221.832 39.0086H221.834ZM216.394 27.9605H223.504C224.132 27.9605 224.553 27.8818 224.768 27.7258C224.983 27.5698 225.09 27.2564 225.09 26.7855C225.09 26.1061 224.903 25.4733 224.534 24.8858C224.162 24.2983 223.648 23.8419 222.993 23.5139C222.336 23.1873 221.593 23.024 220.766 23.024C219.939 23.024 219.238 23.1815 218.581 23.4935C217.924 23.8069 217.395 24.2385 216.997 24.7867C216.597 25.3348 216.398 25.9749 216.398 26.7067V27.9605H216.394Z" fill="white"/>
<path d="M240.508 39.0086C239.109 39.0086 237.853 38.8526 236.739 38.5392C235.625 38.2257 234.747 37.8277 234.104 37.3437C233.462 36.8611 233.14 36.3713 233.14 35.8741C233.14 35.6394 233.204 35.3784 233.333 35.0898C233.462 34.8025 233.647 34.5547 233.889 34.3448C234.131 34.1363 234.396 34.0313 234.681 34.0313C235.053 34.0313 235.445 34.1815 235.859 34.4818C236.272 34.7821 236.823 35.0825 237.509 35.3828C238.194 35.6831 239.15 35.8333 240.377 35.8333C241.805 35.8333 242.768 35.6117 243.268 35.167C243.767 34.7238 244.017 34.2398 244.017 33.7179C244.017 33.0385 243.767 32.5092 243.268 32.1316C242.768 31.754 242.126 31.4464 241.341 31.2102C240.556 30.9755 239.721 30.7466 238.836 30.525C237.952 30.3034 237.116 30.0089 236.331 29.643C235.545 29.277 234.903 28.7682 234.404 28.1151C233.904 27.4619 233.655 26.6003 233.655 25.5287C233.655 24.6409 233.897 23.7588 234.383 22.8841C234.868 22.0093 235.647 21.2906 236.718 20.7293C237.789 20.168 239.223 19.8866 241.023 19.8866C242.108 19.8866 243.136 19.9916 244.107 20.2001C245.077 20.41 245.877 20.6899 246.505 21.0427C247.133 21.3955 247.447 21.7804 247.447 22.1989C247.447 22.3826 247.375 22.6362 247.234 22.9628C247.09 23.2894 246.897 23.5766 246.655 23.8244C246.413 24.0737 246.105 24.1962 245.734 24.1962C245.449 24.1962 245.092 24.0985 244.663 23.9032C244.234 23.7078 243.735 23.5183 243.163 23.3346C242.591 23.1523 241.893 23.0605 241.064 23.0605C240.235 23.0605 239.572 23.1844 239.072 23.4323C238.572 23.6816 238.208 23.9746 237.98 24.3143C237.751 24.654 237.638 24.9937 237.638 25.3334C237.638 25.9078 237.88 26.3525 238.366 26.6659C238.85 26.9794 239.494 27.2403 240.293 27.4503C241.091 27.6602 241.934 27.8745 242.819 28.0961C243.703 28.3177 244.539 28.6385 245.324 29.0554C246.108 29.4739 246.752 30.0352 247.251 30.7408C247.75 31.4464 248 32.3868 248 33.5619C248 35.2078 247.35 36.5273 246.051 37.5186C244.752 38.5115 242.903 39.0072 240.505 39.0072L240.508 39.0086Z" fill="white"/>
<defs>
<linearGradient id="paint0_linear_259_216" x1="24.8902" y1="2.73139" x2="24.8902" y2="36.1177" gradientUnits="userSpaceOnUse">
<stop stop-color="#02BDFF"/>
<stop offset="1" stop-color="#505EFF"/>
</linearGradient>
<linearGradient id="paint1_linear_259_216" x1="36.5308" y1="2.73139" x2="36.5308" y2="36.1177" gradientUnits="userSpaceOnUse">
<stop stop-color="#02BDFF"/>
<stop offset="1" stop-color="#505EFF"/>
</linearGradient>
<linearGradient id="paint2_linear_259_216" x1="13.2606" y1="2.73142" x2="13.2606" y2="36.1177" gradientUnits="userSpaceOnUse">
<stop stop-color="#02BDFF"/>
<stop offset="1" stop-color="#505EFF"/>
</linearGradient>
<linearGradient id="paint3_linear_259_216" x1="22.039" y1="2.73133" x2="22.039" y2="36.1176" gradientUnits="userSpaceOnUse">
<stop stop-color="#02BDFF"/>
<stop offset="1" stop-color="#505EFF"/>
</linearGradient>
<linearGradient id="paint4_linear_259_216" x1="27.8673" y1="2.73137" x2="27.8673" y2="36.1177" gradientUnits="userSpaceOnUse">
<stop stop-color="#02BDFF"/>
<stop offset="1" stop-color="#505EFF"/>
</linearGradient>
</defs>
</svg>
